<?xml version="1.0" encoding="UTF-8"?>
<svg xmlns="http://www.w3.org/2000/svg" xmlns:xlink="http://www.w3.org/1999/xlink" width="200px" height="59px" viewBox="0 0 198 59" version="1.1">
<g id="surface1">
<path style=" stroke:none;fill-rule:nonzero;fill:rgb(0%,0%,0%);fill-opacity:1;" d="M 181.847656 13.628906 C 181.054688 13.703125 179.726562 13.847656 178.898438 13.953125 C 177.386719 14.136719 177.351562 14.171875 177.351562 15.582031 C 177.351562 16.917969 177.421875 16.992188 178.429688 16.992188 L 179.507812 16.992188 L 179.507812 33.984375 L 178.394531 33.984375 C 177.351562 33.984375 177.316406 34.019531 177.421875 35.5 L 177.53125 37.054688 L 186.164062 37.054688 L 186.164062 35.609375 C 186.164062 34.378906 186.058594 34.164062 185.335938 34.054688 C 184.546875 33.945312 184.511719 33.839844 184.617188 30.257812 L 184.726562 26.570312 L 186.058594 25.847656 C 187.316406 25.199219 187.496094 25.160156 188.394531 25.667969 C 189.402344 26.210938 189.402344 26.320312 189.511719 30.113281 L 189.617188 33.984375 L 188.683594 33.984375 C 187.785156 33.984375 187.746094 34.089844 187.855469 35.5 L 187.964844 37.054688 L 196.597656 37.054688 L 196.703125 35.5 C 196.8125 34.019531 196.777344 33.984375 195.734375 33.984375 L 194.617188 33.984375 L 194.582031 29.898438 C 194.582031 25.378906 194.152344 23.714844 192.785156 22.667969 C 190.839844 21.222656 187.566406 21.257812 185.589844 22.738281 L 184.546875 23.535156 L 184.546875 18.4375 C 184.546875 13.847656 184.472656 13.375 183.933594 13.449219 C 183.574219 13.484375 182.640625 13.558594 181.847656 13.628906 Z M 181.847656 13.628906 "/>
<path style=" stroke:none;fill-rule:nonzero;fill:rgb(0%,0%,0%);fill-opacity:1;" d="M 26.980469 15.183594 C 25.289062 16.882812 26.585938 19.523438 29.066406 19.523438 C 30.757812 19.523438 31.65625 18.65625 31.65625 17.0625 C 31.65625 15.507812 30.542969 14.460938 28.957031 14.460938 C 28.167969 14.460938 27.410156 14.75 26.980469 15.183594 Z M 26.980469 15.183594 "/>
<path style=" stroke:none;fill-rule:nonzero;fill:rgb(0%,0%,0%);fill-opacity:1;" d="M 105.117188 15.546875 C 101.480469 16.304688 99.648438 18.402344 99.648438 21.65625 C 99.648438 25.199219 101.480469 26.96875 106.699219 28.523438 C 109.503906 29.355469 110.441406 30.113281 110.441406 31.5625 C 110.441406 32.96875 109.214844 33.621094 106.664062 33.621094 C 104.074219 33.621094 103.605469 33.367188 103.28125 31.777344 C 103.066406 30.621094 102.921875 30.546875 101.519531 30.441406 L 99.972656 30.332031 L 100.078125 33.332031 L 100.1875 36.332031 L 101.625 36.839844 C 103.820312 37.597656 109.179688 37.5625 111.230469 36.765625 C 114.398438 35.539062 115.90625 32.574219 115.117188 29.246094 C 114.539062 26.789062 112.742188 25.34375 108.894531 24.113281 C 105.367188 22.957031 104.324219 22.304688 104.324219 21.183594 C 104.324219 19.703125 105.402344 19.125 107.957031 19.234375 L 110.261719 19.339844 L 110.441406 20.605469 C 110.621094 21.800781 110.691406 21.871094 112.167969 21.980469 L 113.675781 22.089844 L 113.675781 19.050781 C 113.675781 16.449219 113.570312 15.941406 113.066406 15.726562 C 111.988281 15.328125 106.734375 15.183594 105.117188 15.546875 Z M 105.117188 15.546875 "/>
<path style=" stroke:none;fill-rule:nonzero;fill:rgb(0%,0%,0%);fill-opacity:1;" d="M 1.078125 17.351562 C 1.078125 18.65625 1.1875 18.800781 1.941406 18.800781 C 2.769531 18.800781 2.984375 19.339844 5.863281 27.910156 L 8.886719 37.054688 L 15.578125 37.054688 L 18.632812 27.910156 C 21.476562 19.339844 21.691406 18.800781 22.519531 18.800781 C 23.273438 18.800781 23.382812 18.65625 23.382812 17.351562 L 23.382812 15.90625 L 14.75 15.90625 L 14.75 17.351562 C 14.75 18.65625 14.855469 18.800781 15.648438 18.800781 C 16.152344 18.800781 16.546875 19.015625 16.546875 19.234375 C 16.546875 19.773438 12.988281 31.417969 12.625 32.066406 C 12.445312 32.390625 9.066406 22.269531 8.347656 19.269531 C 8.273438 18.945312 8.597656 18.800781 9.316406 18.800781 C 10.359375 18.800781 10.433594 18.726562 10.433594 17.351562 L 10.433594 15.90625 L 1.078125 15.90625 Z M 1.078125 17.351562 "/>
<path style=" stroke:none;fill-rule:nonzero;fill:rgb(0%,0%,0%);fill-opacity:1;" d="M 52.089844 18.328125 C 51.15625 18.472656 51.082031 18.617188 51.082031 20.28125 C 51.082031 22.015625 51.046875 22.050781 50.003906 22.050781 C 48.960938 22.050781 48.925781 22.125 48.925781 23.679688 C 48.925781 25.234375 48.960938 25.304688 50.003906 25.304688 L 51.082031 25.304688 L 51.117188 29.355469 C 51.117188 33.984375 51.550781 35.574219 52.988281 36.65625 C 54.03125 37.453125 57.125 37.671875 59.105469 37.128906 C 60.003906 36.875 60.078125 36.695312 60.078125 35.140625 L 60.078125 33.40625 L 58.636719 33.550781 C 56.335938 33.765625 56.121094 33.367188 56.121094 29.066406 L 56.121094 25.304688 L 60.4375 25.304688 L 60.4375 22.050781 L 56.121094 22.050781 L 56.121094 18.074219 L 54.609375 18.113281 C 53.746094 18.148438 52.628906 18.257812 52.089844 18.328125 Z M 52.089844 18.328125 "/>
<path style=" stroke:none;fill-rule:nonzero;fill:rgb(0%,0%,0%);fill-opacity:1;" d="M 168.285156 18.328125 C 167.351562 18.472656 167.277344 18.617188 167.277344 20.28125 C 167.277344 22.015625 167.242188 22.050781 166.199219 22.050781 C 165.15625 22.050781 165.121094 22.125 165.121094 23.679688 C 165.121094 25.234375 165.15625 25.304688 166.199219 25.304688 L 167.277344 25.304688 L 167.277344 29.789062 C 167.277344 33.839844 167.351562 34.34375 168.105469 35.464844 C 169.148438 37.054688 171.128906 37.742188 173.644531 37.417969 C 174.6875 37.273438 175.625 37.09375 175.695312 36.949219 C 175.769531 36.800781 175.949219 35.933594 176.09375 34.996094 L 176.34375 33.332031 L 174.867188 33.511719 C 172.566406 33.839844 172.316406 33.40625 172.316406 29.066406 L 172.316406 25.34375 L 174.402344 25.234375 L 176.453125 25.125 L 176.558594 23.570312 L 176.667969 22.050781 L 172.316406 22.050781 L 172.316406 18.074219 L 170.804688 18.113281 C 169.941406 18.148438 168.824219 18.257812 168.285156 18.328125 Z M 168.285156 18.328125 "/>
<path style=" stroke:none;fill-rule:nonzero;fill:rgb(0%,0%,0%);fill-opacity:1;" d="M 41.835938 21.726562 C 38.921875 22.089844 36.550781 23.859375 35.433594 26.464844 C 34.714844 28.234375 34.75 31.921875 35.46875 33.476562 C 36.910156 36.511719 40.652344 38.066406 44.679688 37.308594 C 45.867188 37.09375 46.910156 36.839844 46.945312 36.800781 C 47.019531 36.730469 47.160156 35.933594 47.304688 34.996094 L 47.558594 33.332031 L 45.363281 33.511719 C 41.730469 33.839844 39.929688 32.5 39.929688 29.5 C 39.929688 27.042969 40.9375 25.703125 43.242188 25.160156 C 44.175781 24.945312 44.246094 25.015625 44.464844 26.390625 C 44.679688 27.800781 44.75 27.835938 46.082031 27.835938 L 47.484375 27.835938 L 47.484375 24.945312 C 47.484375 22.234375 47.449219 22.050781 46.695312 21.90625 C 45.003906 21.546875 43.636719 21.511719 41.835938 21.726562 Z M 41.835938 21.726562 "/>
<path style=" stroke:none;fill-rule:nonzero;fill:rgb(0%,0%,0%);fill-opacity:1;" d="M 68.3125 21.726562 C 65.21875 22.199219 63.0625 23.933594 62.054688 26.714844 C 60.398438 31.523438 62.808594 36.261719 67.449219 37.238281 C 73.496094 38.5 78.0625 35.140625 78.0625 29.464844 C 78.0625 24.042969 74.070312 20.859375 68.3125 21.726562 Z M 71.695312 26.066406 C 73.53125 27.511719 73.675781 31.5625 71.910156 32.96875 C 70.722656 33.945312 68.636719 33.800781 67.59375 32.679688 C 66.875 31.886719 66.730469 31.378906 66.730469 29.390625 C 66.730469 27.257812 66.839844 26.96875 67.738281 26.175781 C 68.960938 25.125 70.472656 25.054688 71.695312 26.066406 Z M 71.695312 26.066406 "/>
<path style=" stroke:none;fill-rule:nonzero;fill:rgb(0%,0%,0%);fill-opacity:1;" d="M 26.730469 21.945312 L 24.460938 22.089844 L 24.460938 23.5 C 24.460938 24.871094 24.535156 24.945312 25.542969 24.945312 L 26.621094 24.945312 L 26.621094 33.984375 L 25.542969 33.984375 C 24.5 33.984375 24.460938 34.054688 24.460938 35.609375 L 24.460938 37.273438 L 29.066406 37.164062 L 33.636719 37.054688 L 33.636719 35.609375 C 33.636719 34.308594 33.527344 34.164062 32.664062 34.054688 L 31.65625 33.945312 L 31.65625 21.691406 L 30.324219 21.761719 C 29.570312 21.800781 27.953125 21.871094 26.730469 21.945312 Z M 26.730469 21.945312 "/>
<path style=" stroke:none;fill-rule:nonzero;fill:rgb(0%,0%,0%);fill-opacity:1;" d="M 81.839844 22.015625 L 79.683594 22.234375 L 79.574219 23.570312 C 79.464844 24.835938 79.503906 24.910156 80.652344 25.015625 L 81.839844 25.125 L 81.949219 29.535156 L 82.054688 33.945312 L 80.871094 34.054688 C 79.753906 34.164062 79.683594 34.234375 79.683594 35.609375 L 79.683594 37.054688 L 84.644531 37.164062 L 89.574219 37.273438 L 89.574219 33.984375 L 86.660156 33.984375 L 86.769531 30.65625 L 86.875 27.332031 L 88.101562 26.5 C 88.785156 26.03125 89.789062 25.667969 90.332031 25.667969 C 91.335938 25.667969 91.375 25.632812 91.375 23.644531 L 91.375 21.582031 L 90.042969 21.800781 C 89.324219 21.945312 88.28125 22.488281 87.703125 22.992188 L 86.695312 24.003906 L 86.695312 22.847656 C 86.695312 21.546875 86.660156 21.546875 81.839844 22.015625 Z M 81.839844 22.015625 "/>
<path style=" stroke:none;fill-rule:nonzero;fill:rgb(0%,0%,0%);fill-opacity:1;" d="M 119.542969 21.945312 L 117.273438 22.089844 L 117.273438 23.5 C 117.273438 24.871094 117.347656 24.945312 118.355469 24.945312 L 119.433594 24.945312 L 119.433594 33.984375 L 118.355469 33.984375 C 117.3125 33.984375 117.273438 34.054688 117.273438 35.609375 L 117.273438 37.273438 L 121.699219 37.164062 L 126.089844 37.054688 L 126.089844 35.609375 C 126.089844 34.378906 125.980469 34.164062 125.296875 34.054688 C 124.503906 33.945312 124.46875 33.765625 124.46875 30.730469 C 124.46875 26.96875 124.613281 26.535156 125.945312 25.847656 C 128.5 24.511719 129.144531 25.414062 129.144531 30.222656 C 129.144531 33.730469 129.109375 33.984375 128.425781 33.984375 C 127.816406 33.984375 127.707031 34.234375 127.707031 35.609375 L 127.707031 37.273438 L 131.773438 37.164062 L 135.800781 37.054688 L 135.800781 35.609375 C 135.800781 34.378906 135.691406 34.164062 135.011719 34.054688 C 134.21875 33.945312 134.183594 33.765625 134.183594 30.730469 C 134.183594 26.96875 134.328125 26.535156 135.65625 25.847656 C 138.210938 24.511719 138.859375 25.414062 138.859375 30.222656 C 138.859375 33.730469 138.824219 33.984375 138.140625 33.984375 C 137.527344 33.984375 137.421875 34.234375 137.421875 35.609375 L 137.421875 37.238281 L 146.054688 37.238281 L 146.054688 35.609375 C 146.054688 34.054688 146.019531 33.984375 144.972656 33.984375 L 143.894531 33.984375 L 143.894531 29.824219 C 143.894531 25.199219 143.5 23.714844 141.917969 22.488281 C 140.082031 21.039062 136.125 21.511719 134.433594 23.425781 C 133.824219 24.113281 133.785156 24.113281 132.597656 22.921875 C 131.484375 21.800781 131.195312 21.691406 129.21875 21.691406 C 127.5625 21.691406 126.808594 21.871094 125.765625 22.59375 L 124.46875 23.460938 L 124.46875 22.59375 C 124.46875 21.617188 124.863281 21.65625 119.542969 21.945312 Z M 119.542969 21.945312 "/>
<path style=" stroke:none;fill-rule:nonzero;fill:rgb(0%,0%,0%);fill-opacity:1;" d="M 146.773438 23.5 C 146.773438 24.511719 146.917969 24.945312 147.277344 24.945312 C 147.601562 24.945312 148.75 27.402344 150.371094 31.488281 L 152.996094 37.996094 L 151.664062 41.03125 C 150.945312 42.695312 150.371094 44.140625 150.371094 44.25 C 150.371094 44.359375 151.414062 44.46875 152.636719 44.46875 L 154.9375 44.46875 L 159.039062 34.851562 C 161.847656 28.269531 163.355469 25.160156 163.789062 25.015625 C 164.21875 24.910156 164.402344 24.476562 164.402344 23.460938 L 164.402344 22.050781 L 156.847656 22.050781 L 156.847656 23.5 C 156.847656 24.800781 156.917969 24.945312 157.78125 24.945312 C 158.394531 24.945312 158.644531 25.089844 158.535156 25.378906 C 158.429688 25.632812 157.816406 27.367188 157.207031 29.175781 C 156.59375 31.019531 155.945312 32.535156 155.839844 32.535156 C 155.695312 32.535156 154.976562 30.835938 154.253906 28.742188 L 152.925781 24.945312 L 153.824219 24.945312 C 154.578125 24.945312 154.6875 24.800781 154.6875 23.5 L 154.6875 22.050781 L 146.773438 22.050781 Z M 146.773438 23.5 "/>
</g>
</svg>
